# xmcd CD database file
#
# Track frame offsets:
#	150
#	36085
#	64970
#	89142
#	117902
#	141727
#	171857
#	196040
#	223020
#	248775
#
# Disc length: 3745 seconds
#
# Revision: 0
# Processed by: cddbd v1.5.1PL0 Copyright (c) Steve Scherf et al.
# Submitted via: CDex 1.51
#
DISCID=9b0e9f0a
DTITLE=The Jazz Networks - In The Movies
DYEAR=1995
DGENRE=Jazz
TTITLE0=No Problem
TTITLE1=Love Me or Leave Me
TTITLE2=All the Way
TTITLE3=Cheek to Cheek
TTITLE4=It Had To Be You
TTITLE5=A Whole New World
TTITLE6=Smoke Gets in Your Eyes
TTITLE7=That Old Feeling
TTITLE8=Raidres of the Lost Ark
TTITLE9=Laura
EXTD=YEAR: 1995
EXTT0=
EXTT1=
EXTT2=
EXTT3=
EXTT4=
EXTT5=
EXTT6=
EXTT7=
EXTT8=
EXTT9=
PLAYORDER=
